<svg width="32" height="32" viewBox="0 0 127 127" fill="none" xmlns="http://www.w3.org/2000/svg">
<path d="M3 62.8051C3 36.2186 3 22.9255 11.2593 14.6662C19.5187 6.40688 32.8118 6.40688 59.3983 6.40688H64.0981C90.6846 6.40688 103.978 6.40688 112.237 14.6662C120.496 22.9255 120.496 36.2186 120.496 62.8051V67.505C120.496 94.0915 120.496 107.384 112.237 115.644C103.978 123.903 90.6846 123.903 64.0981 123.903H59.3983C32.8118 123.903 19.5187 123.903 11.2593 115.644C3 107.384 3 94.0915 3 67.505V62.8051Z" fill="url(#paint0_linear_fav)"/>
<path d="M64.4897 92.0187C68.6928 92.0187 72.3102 91.3297 75.3418 89.9517C78.3735 88.5047 81.543 86.2309 84.8503 83.1303L92.7052 91.1919C85.0571 99.6669 75.7553 103.904 64.7998 103.904C53.9133 103.904 44.8526 100.39 37.6179 93.3623C30.4521 86.3343 26.8692 77.4459 26.8692 66.6972C26.8692 55.9484 30.521 46.9911 37.8246 39.8253C45.1971 32.6595 54.4645 29.0766 65.6266 29.0766C76.8577 29.0766 86.2284 33.2107 93.7387 41.479L85.9872 49.9539C82.5421 46.6466 79.2693 44.3384 76.1687 43.0293C73.137 41.7201 69.5541 41.0656 65.4199 41.0656C58.1163 41.0656 51.984 43.4427 47.023 48.1969C42.0621 52.8823 39.5816 58.9112 39.5816 66.2838C39.5816 73.5874 42.0276 79.7197 46.9197 84.6806C51.8806 89.5727 57.7373 92.0187 64.4897 92.0187Z" fill="white"/>
<defs>
<linearGradient id="paint0_linear_fav" x1="61.7482" y1="6.40688" x2="61.7482" y2="123.903" gradientUnits="userSpaceOnUse">
<stop stop-color="#6772E5"/>
<stop offset="1" stop-color="#9F32FC"/>
</linearGradient>
</defs>
</svg>
